 
<svg xmlns="http://www.w3.org/2000/svg" width="20" height="23" viewBox="0 0 20 23" fill="none">
  <path d="M2.85714 1.42859C1.28125 1.42859 0 2.70984 0 4.28573V18.5714C0 20.1473 1.28125 21.4286 2.85714 21.4286H17.1429C18.7188 21.4286 20 20.1473 20 18.5714V4.28573C20 2.70984 18.7188 1.42859 17.1429 1.42859H2.85714ZM8.57143 11.4286H10.7143C11.5045 11.4286 12.1429 10.7902 12.1429 10C12.1429 9.20984 11.5045 8.57145 10.7143 8.57145H8.57143V11.4286ZM10.7143 14.2857H8.57143V15.7143C8.57143 16.5045 7.93304 17.1429 7.14286 17.1429C6.35268 17.1429 5.71429 16.5045 5.71429 15.7143V12.8572V7.50002C5.71429 6.51341 6.51339 5.7143 7.5 5.7143H10.7143C13.0804 5.7143 15 7.63395 15 10C15 12.3661 13.0804 14.2857 10.7143 14.2857Z" fill="white"/>
</svg>