 
<svg xmlns="http://www.w3.org/2000/svg" width="20" height="16" viewBox="0 0 20 16" fill="none">
  <g clip-path="url(#clip0_16_7)">
    <path d="M2 2H9V2.30625C9 3.525 8.25938 4.61875 7.12813 5.06875C5.2375 5.82812 4 7.65625 4 9.69375V12H2V2ZM11 2H18V12H15.8844L15.7688 11.8594L13.4187 9.04062C13.1344 8.7 12.7125 8.5 12.2656 8.5H10.0437L8.7625 6.52812C8.75312 6.5125 8.74375 6.49688 8.73125 6.48438C10.1281 5.57812 10.9969 4.01562 10.9969 2.30938V2.00312L11 2ZM13.2812 12H11.85L13.1844 14H18.5C19.3281 14 20 13.3281 20 12.5V1.5C20 0.671875 19.3281 0 18.5 0H1.5C0.671875 0 0 0.671875 0 1.5V12.5C0 13.3281 0.671875 14 1.5 14H9.63125L10.6687 15.5562C10.975 16.0156 11.5969 16.1406 12.0562 15.8344C12.5156 15.5281 12.6406 14.9062 12.3344 14.4469L9.70312 10.5H12.0344L13.2844 12H13.2812ZM8.29688 12H6V9.69375C6 9.375 6.05 9.06563 6.14687 8.77188L8.29688 12ZM6 4C6 3.60218 5.84196 3.22064 5.56066 2.93934C5.27936 2.65804 4.89782 2.5 4.5 2.5C4.10218 2.5 3.72064 2.65804 3.43934 2.93934C3.15804 3.22064 3 3.60218 3 4C3 4.39782 3.15804 4.77936 3.43934 5.06066C3.72064 5.34196 4.10218 5.5 4.5 5.5C4.89782 5.5 5.27936 5.34196 5.56066 5.06066C5.84196 4.77936 6 4.39782 6 4Z" fill="white"/>
  </g>
  <defs>
    <clipPath id="clip0_16_7">
      <rect width="20" height="16" fill="white"/>
    </clipPath>
  </defs>
</svg>