 
<svg xmlns="http://www.w3.org/2000/svg" width="20" height="18" viewBox="0 0 20 18" fill="none">
  <g clip-path="url(#clip0_16_14)">
    <path d="M13.0903 1.80551C13.4722 1.32634 13.3958 0.628428 12.9167 0.243011C12.4375 -0.142405 11.7396 -0.0625442 11.3542 0.416622L10 2.11107L8.64583 0.416622C8.26389 -0.0625442 7.5625 -0.138933 7.08333 0.243011C6.60417 0.624956 6.52778 1.32634 6.90972 1.80551L8.57639 3.88884L0.427083 14.0763C0.149306 14.4236 0 14.8507 0 15.2916V16.1111C0 17.0312 0.746528 17.7777 1.66667 17.7777H10H18.3333C19.2535 17.7777 20 17.0312 20 16.1111V15.2916C20 14.8507 19.8507 14.4201 19.5729 14.0763L11.4236 3.88884L13.0903 1.80551ZM10 15.5555H5.85069L10 10.1284L14.1493 15.5555H10Z" fill="white"/>
  </g>
  <defs>
    <clipPath id="clip0_16_14">
      <rect width="20" height="17.7778" fill="white"/>
    </clipPath>
  </defs>
</svg>