<svg width="20" height="16" viewBox="0 0 20 16" fill="none" xmlns="http://www.w3.org/2000/svg">
<g clip-path="url(#clip0_16_16)">
<path d="M2.50006 1.5C2.50006 1.10218 2.65809 0.720644 2.9394 0.43934C3.2207 0.158035 3.60223 0 4.00006 0C4.39788 0 4.77941 0.158035 5.06072 0.43934C5.34202 0.720644 5.50006 1.10218 5.50006 1.5C5.50006 1.89782 5.34202 2.27936 5.06072 2.56066C4.77941 2.84196 4.39788 3 4.00006 3C3.60223 3 3.2207 2.84196 2.9394 2.56066C2.65809 2.27936 2.50006 1.89782 2.50006 1.5ZM3.75006 11V15C3.75006 15.5531 3.30318 16 2.75006 16C2.19693 16 1.75006 15.5531 1.75006 15V10.1625C1.49693 10.45 1.09068 10.575 0.703183 10.4563C0.175058 10.2906 -0.118692 9.73125 0.0469328 9.20312L1.01256 6.10625C1.40318 4.85312 2.56256 4 3.87506 4H4.12506C5.43756 4 6.59693 4.85312 6.98756 6.10625L7.95318 9.20312C8.11881 9.73125 7.82506 10.2906 7.29693 10.4563C6.90943 10.5781 6.50318 10.45 6.25006 10.1625V15C6.25006 15.5531 5.80318 16 5.25006 16C4.69693 16 4.25006 15.5531 4.25006 15V11H3.75006ZM10.0001 0C10.4157 0 10.7501 0.334375 10.7501 0.75V15.25C10.7501 15.6656 10.4157 16 10.0001 16C9.58443 16 9.25006 15.6656 9.25006 15.25V0.75C9.25006 0.334375 9.58443 0 10.0001 0ZM14.5001 1.5C14.5001 1.10218 14.6581 0.720644 14.9394 0.43934C15.2207 0.158035 15.6022 0 16.0001 0C16.3979 0 16.7794 0.158035 17.0607 0.43934C17.342 0.720644 17.5001 1.10218 17.5001 1.5C17.5001 1.89782 17.342 2.27936 17.0607 2.56066C16.7794 2.84196 16.3979 3 16.0001 3C15.6022 3 15.2207 2.84196 14.9394 2.56066C14.6581 2.27936 14.5001 1.89782 14.5001 1.5ZM13.7501 15V12H13.1938C12.8532 12 12.6126 11.6656 12.7188 11.3406L13.0001 10.5C12.9001 10.5 12.8001 10.4844 12.7032 10.4531C12.1751 10.2875 11.8813 9.72812 12.0469 9.2L12.9751 6.225C13.3876 4.90312 14.6126 4 16.0001 4C17.3876 4 18.6126 4.90312 19.0251 6.225L19.9532 9.2C20.1188 9.72812 19.8251 10.2875 19.2969 10.4531C19.1969 10.4844 19.0969 10.5 19.0001 10.5L19.2813 11.3406C19.3907 11.6656 19.1469 12 18.8063 12H18.2501V15C18.2501 15.5531 17.8032 16 17.2501 16C16.6969 16 16.2501 15.5531 16.2501 15V12H15.7501V15C15.7501 15.5531 15.3032 16 14.7501 16C14.1969 16 13.7501 15.5531 13.7501 15Z" fill="black"/>
</g>
<defs>
<clipPath id="clip0_16_16">
<rect width="20" height="16" fill="white"/>
</clipPath>
</defs>
</svg>