<svg width="20" height="18" viewBox="0 0 20 18" fill="none" xmlns="http://www.w3.org/2000/svg">
<path d="M10.7466 6.19449L15.5521 10.316C15.4966 10.3473 15.441 10.3855 15.3855 10.4202C14.7605 10.8507 13.9931 11.125 13.3299 11.125C12.6494 11.125 11.9132 10.8577 11.2744 10.4202C10.507 9.88199 9.48269 9.88199 8.71533 10.4202C8.12158 10.8299 7.39589 11.125 6.65978 11.125C6.30908 11.125 5.92714 11.0487 5.55214 10.9098C5.66325 6.70837 9.10422 3.33337 13.3334 3.33337H15.5556C16.1702 3.33337 16.6667 3.8299 16.6667 4.44449C16.6667 5.05907 16.1702 5.5556 15.5556 5.5556H13.3334C12.3994 5.5556 11.5174 5.78476 10.7466 6.19449ZM5.55561 5.5556C5.55561 6.14497 5.32148 6.7102 4.90473 7.12694C4.48799 7.54369 3.92276 7.77782 3.33339 7.77782C2.74402 7.77782 2.17879 7.54369 1.76204 7.12694C1.34529 6.7102 1.11116 6.14497 1.11116 5.5556C1.11116 4.96623 1.34529 4.401 1.76204 3.98425C2.17879 3.5675 2.74402 3.33337 3.33339 3.33337C3.92276 3.33337 4.48799 3.5675 4.90473 3.98425C5.32148 4.401 5.55561 4.96623 5.55561 5.5556ZM10.6424 11.316C11.4237 11.8542 12.3785 12.2223 13.3334 12.2223C14.2674 12.2223 15.257 11.8473 16.0209 11.316C16.4341 11.0209 16.9966 11.0452 17.382 11.375C17.882 11.7882 18.5105 12.1042 19.1389 12.25C19.7362 12.3889 20.1077 12.9862 19.9688 13.5834C19.8299 14.1806 19.2327 14.5521 18.6355 14.4132C17.7848 14.2153 17.0764 13.8403 16.6146 13.5452C15.6077 14.0868 14.4792 14.4445 13.3334 14.4445C12.2257 14.4445 11.2292 14.1007 10.5417 13.7882C10.3403 13.6945 10.1563 13.6042 10.0001 13.5209C9.8438 13.6042 9.66325 13.698 9.45839 13.7882C8.77089 14.1007 7.77436 14.4445 6.66672 14.4445C5.52089 14.4445 4.39241 14.0868 3.38547 13.5487C2.92019 13.8403 2.21533 14.2188 1.36464 14.4167C0.767414 14.5556 0.170192 14.1841 0.0313032 13.5868C-0.107586 12.9896 0.263942 12.3924 0.861164 12.2535C1.48964 12.1077 2.11811 11.7917 2.61811 11.3785C3.00353 11.0521 3.56603 11.0278 3.97922 11.3195C4.74658 11.8473 5.73269 12.2223 6.66672 12.2223C7.62158 12.2223 8.57644 11.8542 9.35769 11.316C9.74311 11.0417 10.257 11.0417 10.6424 11.316Z" fill="black"/>
</svg>